# xmcd
#
# Track frame offsets: 
#        150
#        15816
#        28487
#        44624
#        61328
#        77920
#        94755
#        109938
#        126973
#        145604
#        162648
#        179065
#        196325
#
# Disc length: 2825 seconds
#
# Revision: 0
# Processed by: cddbd v1.5.1PL0 Copyright (c) Steve Scherf et al.
# Submitted via: ExactAudioCopy v0.95a5
#
DISCID=b80b070d
DTITLE=Various Artist - Honey
DYEAR=2004
DGENRE=Soundtrack
TTITLE0=Missy Elliott - Hurt Somethin
TTITLE1=Fabolous - Now Ride
TTITLE2=Blaque - I'm Good
TTITLE3=Yolanda Adams - I Believe
TTITLE4=Tweet - Thug Man
TTITLE5=Jadakiss and Sheek - J-A-D-A
TTITLE6=Tamia - It's A Party
TTITLE7=Amerie - When I Think Of You
TTITLE8=Nate Dogg - Leave Her Alone
TTITLE9=Sean Paul - Gimme The Light
TTITLE10=Eric Sermon - React
TTITLE11=Goapele - Closer
TTITLE12=Mark Ronson, Ghostface And Nate Dogg - Ohh Wee
EXTD=
EXTT0=
EXTT1=
EXTT2=
EXTT3=
EXTT4=
EXTT5=
EXTT6=
EXTT7=
EXTT8=
EXTT9=
EXTT10=
EXTT11=
EXTT12=
PLAYORDER=
